<svg width="29" height="28" viewBox="0 0 29 28" fill="none" xmlns="http://www.w3.org/2000/svg">
<path fill-rule="evenodd" clip-rule="evenodd" d="M27.9682 8.41113L14.7003 0.141412C14.3959 -0.0471374 14.0122 -0.0471374 13.7112 0.141412L0.43995 8.41113C0.165395 8.58314 0 8.88082 0 9.20499V10.419C0 10.935 0.420102 11.3551 0.936133 11.3551C1.45216 11.3551 1.87227 11.7752 1.87227 12.2913V26.5615C1.87227 27.0775 2.29237 27.4976 2.8084 27.4976H8.84529C9.36132 27.4976 9.78143 27.0775 9.78143 26.5615V16.9686C9.78143 16.4526 10.2015 16.0324 10.7176 16.0324H17.6972C18.2132 16.0324 18.6333 16.4526 18.6333 16.9686V26.5615C18.6333 27.0775 19.0534 27.4976 19.5695 27.4976H25.6064C26.1224 27.4976 26.5425 27.0775 26.5425 26.5615L26.5359 12.2913C26.5359 11.7752 26.956 11.3551 27.472 11.3551C27.988 11.3551 28.4081 10.935 28.4081 10.419V9.20499C28.4081 8.88082 28.2427 8.58314 27.9682 8.41113Z" fill="#137CE5"/>
</svg>
