<svg width="98" height="121" viewBox="0 0 98 121" fill="none" xmlns="http://www.w3.org/2000/svg">
<path fill-rule="evenodd" clip-rule="evenodd" d="M67.1566 5.07967C60.4416 11.7947 60.4515 22.6876 67.1764 29.4158C73.9014 36.1407 84.7976 36.1507 91.5126 29.4356C98.2276 22.7206 98.2177 11.8278 91.4927 5.09952C84.7678 -1.62542 73.8716 -1.63534 67.1566 5.07967ZM5.27592 29.0949C-1.18769 22.3502 -1.10831 11.6525 5.51739 5.03006C12.2324 -1.68495 23.1253 -1.67503 29.8535 5.04991C36.5785 11.7748 36.5884 22.671 29.8734 29.386C29.8568 29.4026 29.8403 29.4191 29.8238 29.439C29.751 29.5117 29.6782 29.5845 29.6054 29.6573C19.2782 39.9845 19.179 56.6695 29.2945 67.1555C29.3176 67.1853 29.3441 67.2117 29.3673 67.2349C29.3838 67.2514 29.4003 67.268 29.4202 67.2845C29.493 67.3606 29.5658 67.4334 29.6418 67.5061C40.1014 77.9657 57.0477 77.9822 67.4907 67.5392C67.5998 67.4301 67.7057 67.3209 67.8115 67.2117C74.5299 60.553 85.383 60.5794 92.0914 67.2878C98.8164 74.0127 98.8263 84.909 92.1113 91.624C85.4161 98.3191 74.5629 98.329 67.8314 91.657C67.7255 91.5479 67.6197 91.4387 67.5105 91.3296C57.051 80.87 40.1047 80.8534 29.6617 91.2964C29.5889 91.3692 29.5161 91.442 29.4467 91.5148C29.4268 91.5313 29.4103 91.5512 29.3904 91.5677C22.6754 98.2827 11.7825 98.2728 5.0543 91.5478C-1.6541 84.8394 -1.68057 73.983 4.98151 67.2647C5.09067 67.1588 5.19983 67.0529 5.30899 66.9438C15.752 56.5008 15.7388 39.5578 5.27923 29.0982L5.27592 29.0949Z" fill="#137CE5"/>
<path d="M0 120.776V104.803H2.17328V119.724H19.3511V120.773H0V120.776Z" fill="#137CE5"/>
<path d="M24.9346 120.776V104.803H27.1079V120.776H24.9346Z" fill="#137CE5"/>
<path d="M37.5112 120.776V104.803H39.3438L60.6135 119.337H59.6344V104.803H61.8077V120.776H60.0181L38.7054 106.242H39.6845V120.776H37.5112Z" fill="#137CE5"/>
<path d="M72.2046 120.776V104.803H74.3779V120.776H72.2046ZM74.0802 116.737L73.9941 115.275L93.0046 104.803H95.6476L82.3499 112.173L81.1127 112.88L74.0802 116.737ZM93.901 120.776L80.4743 112.563L81.9662 111.719L96.544 120.78H93.901V120.776Z" fill="#137CE5"/>
</svg>
