<svg width="55" height="56" viewBox="0 0 55 56" fill="none" xmlns="http://www.w3.org/2000/svg">
<path fill-rule="evenodd" clip-rule="evenodd" d="M50.11 36.44H48.96C52.12 36.44 54.66 38.99 54.66 42.13V43.27C54.66 44.54 53.6401 45.55 52.3801 45.55H2.28003C1.02003 45.55 0 44.53 0 43.27V42.13C0 38.99 2.55001 36.44 5.70001 36.44H4.54999C5.79999 36.44 6.83002 35.42 6.83002 34.16V20.5C6.83002 9.18 16.01 0 27.33 0C38.65 0 47.83 9.18 47.83 20.5V34.16C47.83 35.43 48.85 36.44 50.11 36.44ZM19.3701 47.82H35.31C35.31 52.22 31.74 55.79 27.34 55.79C22.94 55.79 19.3701 52.22 19.3701 47.82Z" fill="#137CE5"/>
</svg>
