<svg width="26" height="19" viewBox="0 0 26 19" fill="none" xmlns="http://www.w3.org/2000/svg">
<path d="M23.4187 8.57181C24.6792 8.57181 25.7011 7.54995 25.7011 6.2894C25.7011 5.02884 24.6792 4.00694 23.4187 4.00694C22.1581 4.00694 21.1362 5.02884 21.1362 6.2894C21.1362 7.54995 22.1581 8.57181 23.4187 8.57181Z" fill="#22C35D"/>
<path d="M20.2532 15.2141L18.285 12.2766L19.9059 6.79877C20.1308 5.97841 19.896 5.10184 19.2873 4.50311L14.7621 0.368253L14.696 0.305382C14.4247 0.0572902 14.0509 -0.0485573 13.6904 0.0209083L8.97663 0.920644C8.50029 1.02319 8.16289 1.44993 8.17613 1.93619C8.18936 2.49522 8.65576 2.93847 9.2148 2.92193L13.3463 2.73998L14.8977 4.15577L11.2558 4.90998C10.968 4.92652 10.6901 5.01912 10.4486 5.17789L10.3891 5.2209L4.35882 9.68324L1.33541 8.55196C0.902073 8.38988 0.41251 8.55194 0.16111 8.93896C-0.1366 9.39876 -0.0109016 10.0107 0.448895 10.3117L3.95195 12.5876C4.35882 12.8522 4.88146 12.8489 5.28503 12.5776L5.43057 12.4751L9.52574 9.72293L7.99089 14.5756L3.1779 16.6464C2.72141 16.8415 2.48324 17.3509 2.62879 17.8273C2.78426 18.3433 3.33337 18.6344 3.8494 18.4789L9.52905 16.8018C9.86646 16.7026 10.141 16.4545 10.2766 16.127L10.3263 16.0013L12.8965 9.66672L16.3565 9.27637L15.5196 12.1046L15.4899 12.2038C15.3741 12.6008 15.4733 13.0341 15.7578 13.3352L18.6886 16.4644C19.0723 16.8713 19.714 16.8944 20.1209 16.5107C20.4815 16.17 20.5443 15.6176 20.2665 15.2041L20.2532 15.2141Z" fill="#22C35D"/>
</svg>
