<svg width="20" height="28" viewBox="0 0 20 28" fill="none" xmlns="http://www.w3.org/2000/svg">
<path fill-rule="evenodd" clip-rule="evenodd" d="M12.4468 0.00331112C12.4468 0.00331112 11.4148 4.48881 13.9949 8.49797C16.5751 12.5071 25.3873 20.4097 12.9232 27.7532C12.9232 27.7532 15.5629 24.002 14.2331 21.4417C12.9033 18.8814 10.0453 16.9761 10.5216 12.9669C10.5216 12.9669 6.75064 14.5349 8.41781 21.6402C8.41781 21.6402 6.29415 20.8662 5.40102 18.7723C5.40102 18.7723 4.08118 22.8807 6.50255 27.6837C6.50255 27.6837 -6.29897 21.5774 4.02164 9.71858C4.02164 9.71858 4.23997 13.5888 5.76821 14.6606C5.76821 14.6606 3.2476 4.18117 12.4468 0V0.00331112Z" fill="#22C35D"/>
</svg>
