<svg width="23" height="20" viewBox="0 0 23 20" fill="none" xmlns="http://www.w3.org/2000/svg">
<path d="M2.48287 3.02008C3.27346 2.56359 4.24268 2.30228 5.37397 2.30228C5.52614 2.30228 5.67168 2.36844 5.77754 2.49083C5.96609 2.71246 5.93631 3.04655 5.71469 3.2351C4.53708 4.22416 4.05082 5.18014 3.95489 6.12288C3.85565 7.08879 4.15336 8.09109 4.53708 9.10992C4.61316 9.3117 4.72562 9.60279 4.8414 9.8972C5.6386 11.9216 6.45896 14.0122 5.33758 16.3608C4.9241 17.2275 4.27906 17.9486 3.41901 18.4415C2.62512 18.898 1.65921 19.1593 0.52791 19.1593C0.375747 19.1593 0.226892 19.0931 0.124348 18.9674C-0.0642021 18.7458 -0.0344303 18.4117 0.187198 18.2231C1.36481 17.2341 1.85107 16.2781 1.947 15.3354C2.04623 14.3695 1.74852 13.3672 1.36481 12.3483C1.28872 12.1466 1.17626 11.8555 1.06049 11.5611C0.263284 9.53663 -0.557072 7.44605 0.564302 5.09745C0.977788 4.23078 1.62282 3.50967 2.48287 3.01679V3.02008ZM10.6798 1.66386C11.5366 1.17098 12.5852 0.886512 13.8058 0.886512C13.9579 0.886512 14.1068 0.952672 14.2093 1.07506C14.3979 1.29669 14.3681 1.63079 14.1465 1.81934C12.8498 2.90763 12.3172 3.95954 12.2147 4.99821C12.1055 6.06005 12.433 7.15826 12.8531 8.27632C12.9391 8.50126 13.0615 8.81552 13.1872 9.13307C14.0506 11.3295 14.9437 13.5987 13.7297 16.1392C13.2831 17.0753 12.5885 17.8527 11.659 18.3852C10.8022 18.8781 9.75361 19.1626 8.533 19.1626C8.38084 19.1626 8.23198 19.0964 8.12944 18.9707C7.94089 18.7491 7.97066 18.415 8.19229 18.2265C9.48898 17.1382 10.0216 16.0863 10.1241 15.0509C10.2333 13.9891 9.90578 12.8908 9.48568 11.7728C9.39967 11.5478 9.27728 11.2336 9.15158 10.916C8.28822 8.71959 7.39509 6.45036 8.60909 3.90991C9.05565 2.97708 9.7503 2.19643 10.6798 1.66386ZM18.8073 0.813728C19.7037 0.297697 20.7986 0 22.0821 0C22.2343 0 22.3831 0.0661432 22.4857 0.191843C22.6742 0.413471 22.6445 0.747568 22.4228 0.936118C21.0534 2.08726 20.4943 3.19541 20.3819 4.29363C20.2661 5.41501 20.6134 6.57277 21.0534 7.75038C21.1427 7.98855 21.2717 8.31933 21.404 8.65012C22.3104 10.9557 23.2465 13.3341 21.973 15.9936C21.5065 16.9695 20.7788 17.7865 19.8096 18.3455C18.9132 18.8616 17.8182 19.1593 16.5348 19.1593C16.3826 19.1593 16.2371 19.0931 16.1312 18.9674C15.9427 18.7458 15.9724 18.4117 16.1941 18.2231C17.5635 17.072 18.1226 15.9638 18.235 14.8656C18.3508 13.7443 18.0035 12.5865 17.5635 11.4089C17.4742 11.1707 17.3452 10.8399 17.2129 10.5091C16.3065 8.20355 15.3704 5.82517 16.6439 3.16563C17.1104 2.1898 17.8381 1.37276 18.8073 0.813728Z" fill="#22C35D"/>
</svg>
