<svg width="21" height="25" viewBox="0 0 21 25" fill="none" xmlns="http://www.w3.org/2000/svg">
<path d="M0 2.05492V9.24295C0 11.5022 0.453186 13.659 1.26693 15.6239C2.11044 17.6615 3.34098 19.4974 4.87253 21.0356C6.40739 22.5737 8.23665 23.8043 10.2677 24.6478C12.2987 23.8043 14.128 22.5704 15.6629 21.0356C17.1977 19.4974 18.4249 17.6648 19.2718 15.6239C20.0855 13.6557 20.5387 11.5022 20.5387 9.24295V2.05492C13.6914 -0.786558 6.34784 -0.581469 0 2.05492ZM10.2677 3.08367C11.968 3.08367 13.3473 4.46307 13.3473 6.16333C13.3473 7.86358 11.968 9.24626 10.2677 9.24626C8.56744 9.24626 7.18805 7.86689 7.18805 6.16333C7.18805 4.45977 8.56744 3.08367 10.2677 3.08367ZM17.373 14.8399C16.8702 16.0572 16.202 17.1819 15.4048 18.2106V15.4089C15.4048 14.2743 14.4853 13.3547 13.3507 13.3547V19.5173H7.18805V13.3547C6.05345 13.3547 5.13385 14.2743 5.13385 15.4089V18.2106C4.33665 17.1819 3.66845 16.0605 3.16234 14.8399C3.15572 14.8201 3.14911 14.8002 3.14249 14.7804C3.44682 12.8122 5.13055 11.3004 7.18805 11.3004H13.3507C15.4082 11.3004 17.0919 12.8122 17.3962 14.7804C17.3863 14.8002 17.383 14.8201 17.373 14.8399Z" fill="#22C35D"/>
</svg>
